<?xml version="1.0" standalone="no"?>
<!DOCTYPE svg PUBLIC "-//W3C//DTD SVG 1.0//EN" "http://www.w3.org/TR/2001/REC-SVG-20010904/DTD/svg10.dtd">
<svg xmlns="http://www.w3.org/2000/svg" xmlns:xlink="http://www.w3.org/1999/xlink" id="body_1" width="32" height="32" >

<g transform="matrix(2 0 0 2 0 0)">
	<g transform="matrix(0.015625 0 0 0.015625 4 4)">
	</g>
    <path transform="matrix(0.015625 0 0 0.015625 4 4)"  d="M329.8 235.69L392.63 152.98L435.49 185.54L372.66 268.29L329.8 235.69zM316.94 226.16L383.75 138.16L338.75 104.01L271.94 192.01zM289.46 128.38L270.16 167.95L327.16 92.95001L284.65 60.65001L248.41 108.36zM268.72 55.14001L222.08 19.71001L180.08 75.02L233.75 101.19zM375.72 290.66L236.72 187.95L226.8 188.86L231.36 190.86L293.52 329.29L277 331.54L219.32 203.04L179.32 185.34L175.32 154.5L214.73 173.92L251.09 170.59L268.09 135.76L157.19 81.67001L76.51003 194.18L177.6 346.67L154.9 492.29L341 492.29L341 372.62L376.29 323.69L387 275.77z" stroke-width="16" stroke='black' fill="#E600AC" fill-rule="nonzero" />
</g>
</svg>