<?xml version="1.0" standalone="no"?>
<!DOCTYPE svg PUBLIC "-//W3C//DTD SVG 1.0//EN" "http://www.w3.org/TR/2001/REC-SVG-20010904/DTD/svg10.dtd">
<svg xmlns="http://www.w3.org/2000/svg" xmlns:xlink="http://www.w3.org/1999/xlink" id="body_1" width="32" height="32">

<g transform="matrix(2 0 0 2 0 0)">
	<g transform="matrix(0.015625 0 0 0.015625 4 4)">
	</g>
    <path transform="matrix(0.015625 0 0 0.015625 4 4)"  d="M79.238 115.768L50.728 183.631L456.878 183.631L456.605 115.769L192.775 115.769L192.775 171.374L177.775 171.374L177.775 115.769L161.095 115.769L161.095 171.374L146.1 171.374L146.1 115.769L128.666 115.769L128.666 171.374L113.666 171.374L113.666 115.769L79.238 115.769L79.238 115.768zM467.072 131.728L467.072 172.388L485.76 172.388L485.76 131.728L467.072 131.728zM56.768 198.63L77.334 230.645L28.894 406.5L130.574 413.674L152.114 315.678L267.854 315.678L282.518 235.426L457.068 231.553L456.938 198.631L56.767 198.631zM263.44 235.85L252.27 296.992L156.22 296.992L169.2 237.942L181.73 237.664L179.506 273.164L193.768 286.74L194.771 253.09L219.461 236.826L263.441 235.85z" stroke-width="16" stroke='black' fill="#750342" fill-rule="nonzero" />
</g>
</svg>